# xmcd
#
# Track frame offsets: 
#        183
#        12145
#        25020
#        37785
#        50690
#        63083
#        77193
#        89225
#        102465
#        114133
#        128143
#        142165
#        155950
#        166720
#        177378
#        190968
#        202468
#        216918
#        227628
#        240103
#        253230
#        265250
#
# Disc length: 3670 seconds
#
# Revision: 3
# Processed by: cddbd v1.5.2PL0 Copyright (c) Steve Scherf et al.
# Submitted via: ExactAudioCopy v0.99pb3
#
DISCID=390e5416
DTITLE=Otis Rush - The Classic Recordings
DYEAR=1990
DGENRE=blues
TTITLE0=All Your Love
TTITLE1=Three Times A Fool
TTITLE2=She's A Good 'Un
TTITLE3=It Takes Time
TTITLE4=Double Trouble
TTITLE5=My Love Will Never Die
TTITLE6=My Baby Is A Good 'Un
TTITLE7=Checking On My Baby
TTITLE8=Jump Sister Bessie
TTITLE9=I Can't Quit You Baby
TTITLE10=If You Were Mine
TTITLE11=Groanin' The Blues
TTITLE12=Keep On Loving Me Baby
TTITLE13=Sit Down Baby
TTITLE14=Love That Woman
TTITLE15=Violent Love
TTITLE16=So Many Roads, So Many Trains
TTITLE17=I'm Satisfied
TTITLE18=So Close
TTITLE19=All Your Love (I Miss Loving)
TTITLE20=You Know My Love
TTITLE21=I Can't Stop Baby
EXTD=Submitted 7/8/97\n[Jmccoy@efn.org]
EXTT0=
EXTT1=
EXTT2=
EXTT3=
EXTT4=
EXTT5=
EXTT6=
EXTT7=
EXTT8=
EXTT9=
EXTT10=
EXTT11=
EXTT12=
EXTT13=
EXTT14=
EXTT15=
EXTT16=
EXTT17=
EXTT18=
EXTT19=
EXTT20=
EXTT21=
PLAYORDER=
